<mxfile host="app.diagrams.net" modified="2024-04-30T10:46:58.124Z" agent="Mozilla/5.0 (Windows NT 10.0; Win64; x64) AppleWebKit/537.36 (KHTML, like Gecko) Chrome/105.0.0.0 Safari/537.36" version="24.3.0" etag="KRKpD51Br-uiLn2QY2gG" type="github">
  <diagram name="第 1 页" id="UCIfNq14i5BoRM9NZ5-_">
    <mxGraphModel>
      <root>
        <mxCell id="0" />
        <mxCell id="1" parent="0" />
      </root>
    </mxGraphModel>
  </diagram>
</mxfile>
